<svg width="360" height="640" viewBox="0 0 360 640" fill="none" xmlns="http://www.w3.org/2000/svg">
<g clip-path="url(#clip0_2_1043)">
<rect width="360" height="640" fill="white"/>
<g opacity="0.8">
<path opacity="0.5" d="M251.797 697.825C251.11 676.216 243.063 654.909 227.213 637.989C210.134 653.988 200.327 674.713 197.851 696.063C207.572 701.642 216.47 708.741 224.16 717.271C232.388 709.338 241.73 702.835 251.797 697.825ZM200.891 716.666C199.835 715.857 198.621 715.121 197.487 714.311C198.618 715.199 199.835 715.857 200.891 716.666ZM223.355 741.925C207.566 716.032 179.749 698.335 147.443 697.28C146.1 738.397 170.933 774.024 206.605 788.11C211.416 790.047 216.474 791.527 221.702 792.549C226.987 791.793 232.054 790.643 237.056 789.104C273.571 777.376 300.675 743.445 302.018 702.328C269.712 701.273 240.8 717.118 223.355 741.925Z" fill="#597817"/>
<g opacity="0.8">
<path opacity="0.5" d="M461.558 993.097C592.255 876.583 682.849 715.902 705.65 529.528C517.517 506.512 337.807 553.232 192.279 648.748C208.113 738.128 210.222 830.291 197.171 922.384C289.2 932.305 378.137 956.569 461.558 993.097V993.097ZM80.0624 774.661C79.5948 763.896 77.8623 752.531 77.0089 741.273C77.369 752.917 79.5948 763.896 80.0624 774.661ZM340.07 1081.74C330.615 1078.8 321.761 1074.59 311.812 1072.04C321.761 1074.59 330.615 1078.8 340.07 1081.74ZM39.7959 1045.45C118.667 812.844 84.1376 548.074 -77.1209 341.859C-339.577 547.097 -431.955 886.462 -334.18 1181.28C-321.222 1221.23 -304.147 1260.35 -283.34 1298.14C-251.187 1327.06 -217.724 1352.57 -182.18 1375.65C80.3692 1541.61 431.995 1533.77 694.451 1328.53C533.192 1122.32 284.555 1024.98 39.7959 1045.45Z" fill="#597817"/>
</g>
<path opacity="0.5" d="M-107.638 176.028C-77.4872 156.105 -54.2181 125.971 -44.0343 88.5787C-81.7792 78.2988 -119.872 82.5127 -152.429 97.7072C-151.845 116.433 -154.147 135.321 -159.544 153.744C-141.04 158.5 -123.594 166.093 -107.638 176.028ZM-179.084 120.098C-178.86 117.886 -178.877 115.513 -178.717 113.188C-178.989 115.577 -178.86 117.886 -179.084 120.098ZM-195.338 174.215C-172.331 129.042 -171.532 73.9372 -198.356 27.0345C-258.05 61.1733 -286.982 127.752 -275.753 190.869C-274.291 199.414 -271.963 207.91 -268.834 216.246C-263.124 223.106 -257.045 229.309 -250.47 235.079C-201.763 276.763 -129.709 285.588 -70.0146 251.449C-96.8379 204.546 -144.737 177.291 -195.338 174.215Z" fill="#597817"/>
<path opacity="0.5" d="M125.419 286.146C161.776 256.139 187.796 213.838 195.841 163.93C145.462 155.809 96.6337 166.536 56.5018 190.742C59.8455 214.951 59.4682 239.769 55.0128 264.412C79.6708 268.024 103.35 275.464 125.419 286.146ZM25.0203 223.468C25.0048 220.567 24.6552 217.491 24.541 214.454C24.5185 217.59 25.0048 220.567 25.0203 223.468ZM11.4112 295.908C35.015 234.136 28.4394 162.548 -12.8318 105.415C-85.5468 157.942 -113.879 248.298 -90.5958 328.617C-87.5192 339.499 -83.3263 350.199 -78.1158 360.579C-69.7616 368.689 -61.0203 375.895 -51.6942 382.47C17.2409 429.812 111.923 431.307 184.638 378.78C143.367 321.647 77.471 292.91 11.4112 295.908Z" fill="#597817"/>
<path opacity="0.5" d="M73.6339 715.41C109.991 685.403 136.012 643.102 144.057 593.194C93.6773 585.073 44.849 595.8 4.71705 620.006C8.0607 644.215 7.68336 669.033 3.22804 693.675C27.8861 697.288 51.5648 704.728 73.6339 715.41ZM-26.7645 652.732C-26.78 649.831 -27.1296 646.755 -27.2438 643.718C-27.2663 646.854 -26.78 649.831 -26.7645 652.732ZM-40.3736 725.172C-16.7698 663.4 -23.3454 591.812 -64.6166 534.679C-137.332 587.206 -165.664 677.562 -142.381 757.881C-139.304 768.763 -135.111 779.463 -129.901 789.843C-121.546 797.953 -112.805 805.159 -103.479 811.734C-34.5439 859.076 60.1381 860.571 132.853 808.044C91.5819 750.911 25.6862 722.174 -40.3736 725.172Z" fill="#597817"/>
<path opacity="0.5" d="M163.375 477.741C170.162 459.002 170.543 438.011 162.746 418.112C142.66 425.984 127.189 440.383 117.782 457.82C124.202 465.915 129.399 475.031 133.073 484.96C142.826 480.975 153.045 478.595 163.375 477.741ZM113.354 476.5C112.725 475.447 111.937 474.403 111.243 473.322C111.908 474.468 112.725 475.447 113.354 476.5ZM123.969 505.797C119.286 478.236 101.506 453.588 74.2024 441.659C59.0198 476.409 68.1249 515.392 93.8634 539.628C97.3222 542.928 101.148 545.922 105.276 548.582C110.06 549.738 114.791 550.483 119.6 550.872C154.87 553.292 189.66 533.486 204.843 498.736C177.539 486.807 147.374 490.508 123.969 505.797Z" fill="#597817"/>
<path opacity="0.5" d="M410.355 565.925C432.886 535.406 444.949 497.306 441.494 456.772C400.578 460.26 364.55 478.159 337.941 504.885C345.273 523.134 349.82 542.582 351.148 562.69C371.104 560.701 391.041 561.89 410.355 565.925ZM319.746 536.575C319.168 534.314 318.295 531.981 317.614 529.632C318.208 532.085 319.168 534.314 319.746 536.575ZM323.252 595.785C329.63 542.955 310.532 488.348 267.167 451.794C220.644 506.987 216.15 583.055 249.995 641.22C254.519 649.115 259.88 656.65 265.973 663.738C274.077 668.44 282.307 672.36 290.87 675.675C353.924 699.188 428.134 681.886 474.657 626.693C431.292 590.139 374.241 580.558 323.252 595.785Z" fill="#597817"/>
<path opacity="0.5" d="M386.705 297.47C391.819 259.105 383.846 219.117 360.808 184.593C325.958 207.849 302.57 241.579 291.944 278.562C307.479 291.262 321.115 306.405 332.2 323.722C349.055 312.121 367.459 303.37 386.705 297.47ZM291.282 315.839C289.652 314.103 287.724 312.447 285.958 310.683C287.696 312.583 289.652 314.103 291.282 315.839ZM323.559 367.03C303.255 316.676 259.309 277.274 202.56 265.951C188.149 338.176 221.575 408.371 280.452 443.693C288.382 448.522 296.882 452.618 305.816 455.954C315.373 456.167 324.658 455.619 333.942 454.366C401.867 444.345 459.673 392.354 474.084 320.128C417.336 308.805 361.633 328.324 323.559 367.03Z" fill="#597817"/>
</g>
</g>
<defs>
<clipPath id="clip0_2_1043">
<rect width="360" height="640" fill="white"/>
</clipPath>
</defs>
</svg>
