<svg width="360" height="640" viewBox="0 0 360 640" fill="none" xmlns="http://www.w3.org/2000/svg">
<g clip-path="url(#clip0_2_82)">
<rect width="360" height="640" fill="white"/>
<path d="M0 0H360V640H180H0V0Z" fill="#7CB518"/>
<g opacity="0.6">
<path opacity="0.5" d="M328.895 672.316C361.033 629.746 378.567 576.36 374.32 519.319C316.741 523.605 265.817 548.229 228.002 585.405C238.036 611.172 244.136 638.585 245.701 666.876C273.788 664.379 301.802 666.352 328.895 672.316ZM201.943 629.686C201.165 626.498 199.973 623.205 199.05 619.891C199.848 623.349 201.165 626.498 201.943 629.686ZM205.981 712.987C215.744 638.805 189.715 561.741 129.295 509.694C63.0528 586.593 55.5888 693.476 102.298 775.763C108.541 786.932 115.964 797.608 124.424 807.665C135.747 814.397 147.259 820.033 159.249 824.822C247.547 858.831 352.146 835.622 418.388 758.724C357.967 706.676 277.899 692.346 205.981 712.987Z" fill="white"/>
</g>
<path opacity="0.5" d="M224.012 610.659C235.372 604.592 244.63 594.674 249.487 581.746C236.436 576.843 222.781 577.072 210.723 581.38C210.308 588.044 208.863 594.669 206.336 601.027C212.743 603.329 218.681 606.603 224.012 610.659ZM200.521 588.439C200.674 587.661 200.747 586.819 200.881 585.999C200.705 586.838 200.674 587.661 200.521 588.439ZM192.955 607.1C202.62 591.837 204.736 572.311 196.778 554.777C174.462 564.905 161.983 587.566 163.868 610.335C164.103 613.415 164.646 616.508 165.479 619.569C167.277 622.193 169.228 624.596 171.369 626.862C187.265 643.272 212.538 648.799 234.853 638.671C226.896 621.137 210.806 609.874 192.955 607.1Z" fill="white"/>
<path opacity="0.5" d="M407.074 570.102C414.233 556.936 425.855 546.249 440.942 540.711C446.533 555.94 446.147 571.829 441.028 585.821C433.27 586.247 425.548 587.87 418.128 590.755C415.505 583.279 411.747 576.341 407.074 570.102ZM432.725 597.631C433.631 597.46 434.612 597.383 435.567 597.234C434.59 597.431 433.631 597.46 432.725 597.631ZM410.944 606.273C428.79 595.159 451.529 592.869 471.862 602.282C459.881 628.161 433.403 642.484 406.925 640.091C403.342 639.791 399.749 639.131 396.193 638.135C393.156 636.02 390.377 633.729 387.759 631.218C368.803 612.577 362.593 583.12 374.574 557.241C394.907 566.655 407.872 585.476 410.944 606.273Z" fill="white"/>
<path opacity="0.5" d="M347.197 677.426C340.689 661.31 339.692 643.028 345.858 625.439C363.612 631.663 377.551 643.723 386.302 658.622C380.962 665.88 376.722 673.989 373.834 682.758C365.208 679.595 356.227 677.843 347.197 677.426ZM390.752 674.761C391.266 673.824 391.92 672.889 392.491 671.924C391.947 672.945 391.266 673.824 390.752 674.761ZM382.428 700.63C385.637 676.462 400.352 654.418 423.77 643.157C438.102 672.962 431.401 707.224 409.737 729.161C406.827 732.147 403.587 734.877 400.074 737.326C395.941 738.485 391.842 739.284 387.663 739.776C357.001 743.001 326.054 726.842 311.722 697.037C335.14 685.776 361.547 688.046 382.428 700.63Z" fill="white"/>
<path opacity="0.5" d="M293.556 644.991C306.2 639.953 317.089 630.623 323.708 617.615C310.577 610.933 296.207 609.57 283.037 612.679C281.819 619.629 279.523 626.418 276.122 632.798C282.581 635.969 288.433 640.105 293.556 644.991ZM271.493 618.895C271.745 618.096 271.921 617.22 272.158 616.375C271.875 617.235 271.745 618.096 271.493 618.895ZM261.355 637.606C273.299 622.71 277.813 602.451 271.514 583.101C246.887 591.118 231.119 613.453 230.426 637.588C230.31 640.851 230.518 644.163 231.033 647.476C232.614 650.443 234.38 653.196 236.363 655.827C251.131 674.929 277.026 683.702 301.653 675.685C295.354 656.335 279.779 642.616 261.355 637.606Z" fill="white"/>
<path opacity="0.5" d="M256.298 699.864C259.851 685.305 258.433 669.58 250.989 655.337C236.612 662.851 226.214 674.871 220.595 688.671C226.052 694.201 230.676 700.595 234.229 707.72C241.197 703.95 248.644 701.341 256.298 699.864ZM218.801 702.995C218.245 702.259 217.571 701.542 216.964 700.79C217.555 701.593 218.245 702.259 218.801 702.995ZM229.113 724.036C223.376 703.811 208.084 686.826 186.704 680.123C178.172 707.335 188.142 735.74 209.35 751.771C212.204 753.958 215.307 755.886 218.609 757.539C222.28 758.016 225.877 758.189 229.503 758.09C256.068 757.037 280.471 739.408 289.003 712.197C267.622 705.493 245.37 710.707 229.113 724.036Z" fill="white"/>
<path opacity="0.5" d="M-35.1371 446.066C-18.4077 440.12 -3.75603 428.493 5.51095 411.861C-11.278 402.506 -29.9423 400.023 -47.2617 403.43C-49.1919 412.43 -52.5174 421.166 -57.2641 429.316C-49.0002 433.767 -41.5752 439.446 -35.1371 446.066ZM-62.6148 410.965C-62.2472 409.936 -61.9754 408.803 -61.6251 407.713C-62.0364 408.82 -62.2472 409.936 -62.6148 410.965ZM-76.7495 434.858C-60.449 416.027 -53.5691 389.84 -60.83 364.308C-93.326 373.549 -114.977 401.89 -117.065 433.316C-117.376 437.564 -117.268 441.891 -116.759 446.235C-114.844 450.18 -112.677 453.856 -110.221 457.383C-91.9086 483.007 -58.5849 495.714 -26.0889 486.473C-33.3498 460.941 -52.9797 442.293 -76.7495 434.858Z" fill="white"/>
<path opacity="0.5" d="M155.034 697.961C166.481 683.117 172.835 664.421 171.548 644.361C151.299 645.66 133.316 654.129 119.894 667.057C123.327 676.147 125.372 685.802 125.82 695.749C135.698 694.973 145.535 695.767 155.034 697.961ZM110.577 682.523C110.315 681.4 109.908 680.238 109.596 679.071C109.864 680.289 110.315 681.4 110.577 682.523ZM111.696 711.809C115.394 685.777 106.525 658.603 85.4811 640.096C61.9268 666.88 58.919 704.411 75.0361 733.495C77.1895 737.443 79.7596 741.221 82.696 744.785C86.6507 747.192 90.6758 749.214 94.872 750.94C125.777 763.209 162.616 755.43 186.171 728.646C165.127 710.139 137.042 704.815 111.696 711.809Z" fill="white"/>
<path opacity="0.5" d="M54.5142 650.625C59.8667 644.349 63.0642 636.268 62.9328 627.424C54.0046 627.556 45.9168 630.89 39.7374 636.281C41.0498 640.351 41.7394 644.639 41.7211 649.021C46.0799 648.893 50.3864 649.455 54.5142 650.625ZM35.3077 642.877C35.2169 642.378 35.0631 641.859 34.9511 641.339C35.0425 641.88 35.2169 642.378 35.3077 642.877ZM35.1655 655.774C37.3544 644.412 34.0444 632.276 25.1953 623.686C14.2625 634.948 12.1279 651.38 18.5825 664.512C19.4435 666.294 20.4914 668.01 21.7049 669.641C23.3911 670.784 25.1165 671.76 26.9235 672.609C40.2419 678.671 56.6027 676.049 67.5356 664.787C58.6865 656.197 46.4576 653.249 35.1655 655.774Z" fill="white"/>
<path opacity="0.5" d="M29.7408 581.751C41.6417 573.846 50.8123 561.911 54.8028 547.118C39.8708 543.09 24.8151 544.792 11.9582 550.831C12.2068 558.233 11.3147 565.702 9.19874 572.991C16.5186 574.854 23.4231 577.839 29.7408 581.751ZM1.44172 559.708C1.52804 558.833 1.51912 557.895 1.57996 556.976C1.47482 557.921 1.52804 558.833 1.44172 559.708ZM-4.93277 581.118C4.11999 563.238 4.3831 541.451 -6.26607 522.934C-29.8334 536.488 -41.208 562.837 -36.7085 587.779C-36.1224 591.156 -35.194 594.513 -33.9489 597.805C-31.6849 600.512 -29.2758 602.958 -26.6708 605.233C-7.37524 621.666 21.1196 625.087 44.6869 611.533C34.0377 593.016 15.0749 582.286 -4.93277 581.118Z" fill="white"/>
<path opacity="0.5" d="M55.8979 483.681C62.6427 470.758 64.9637 455.577 61.2489 440.393C45.9213 444.143 33.3039 453.075 24.7857 464.8C28.6516 471.293 31.5308 478.407 33.2275 485.963C40.6859 484.024 48.326 483.294 55.8979 483.681ZM19.7568 477.91C19.4033 477.085 18.9335 476.251 18.5354 475.4C18.9065 476.296 19.4033 477.085 19.7568 477.91ZM24.5983 500.182C23.8876 479.746 13.3992 460.146 -5.23251 448.839C-19.6235 472.552 -16.8196 501.699 -0.521248 521.775C1.66471 524.505 4.1467 527.048 6.88014 529.378C10.2357 530.682 13.5929 531.683 17.0407 532.433C42.3739 537.622 69.5234 526.653 83.9144 502.94C65.2827 491.633 43.0542 491.378 24.5983 500.182Z" fill="white"/>
<path opacity="0.5" d="M175.746 500.181C181.401 494.322 185.042 486.555 185.45 477.833C176.646 477.421 168.475 480.214 162.059 485.15C163.104 489.24 163.523 493.506 163.239 497.823C167.541 497.962 171.75 498.777 175.746 500.181ZM157.294 491.38C157.234 490.883 157.114 490.362 157.036 489.843C157.093 490.381 157.234 490.883 157.294 491.38ZM156.37 504.078C159.217 493.016 156.693 480.858 148.497 471.857C137.041 482.289 133.939 498.349 139.5 511.68C140.24 513.487 141.169 515.242 142.265 516.922C143.857 518.151 145.498 519.217 147.226 520.164C159.98 526.945 176.259 525.357 187.715 514.925C179.518 505.924 167.649 502.276 156.37 504.078Z" fill="white"/>
<path opacity="0.5" d="M146.742 581.944C164.654 575.203 180.213 562.38 189.87 544.271C171.589 534.523 151.424 532.218 132.826 536.235C130.925 545.973 127.515 555.455 122.561 564.333C131.556 568.965 139.671 574.938 146.742 581.944ZM116.429 544.661C116.805 543.545 117.075 542.318 117.431 541.136C117.01 542.338 116.805 543.545 116.429 544.661ZM101.671 570.693C118.864 550.074 125.758 521.714 117.424 494.341C82.5853 504.947 59.8151 535.922 58.1893 569.834C57.9391 574.418 58.1417 579.079 58.777 583.751C60.9186 587.965 63.3277 591.883 66.0444 595.635C86.2912 622.888 122.459 635.92 157.298 625.314C148.964 597.94 127.437 578.233 101.671 570.693Z" fill="white"/>
<path opacity="0.5" d="M189.154 399.796C192.987 381.448 190.557 361.851 180.656 344.358C162.998 354.353 150.504 369.813 144.058 387.298C151.11 393.983 157.158 401.782 161.897 410.539C170.45 405.535 179.649 401.962 189.154 399.796ZM142.414 405.279C141.688 404.382 140.816 403.514 140.026 402.599C140.798 403.579 141.688 404.382 142.414 405.279ZM156.185 431.149C148.167 406.108 128.341 385.516 101.335 378.032C91.8093 412.404 105.46 447.494 132.642 466.645C136.301 469.259 140.26 471.54 144.457 473.468C149.065 473.91 153.569 473.976 158.098 473.7C191.26 471.272 221.026 448.215 230.552 413.843C203.546 406.359 175.949 413.807 156.185 431.149Z" fill="white"/>
<path opacity="0.5" d="M78.0532 401.005C80.135 393.023 79.491 384.357 75.5178 376.454C67.54 380.464 61.7136 386.99 58.5019 394.535C61.457 397.626 63.9465 401.185 65.8399 405.137C69.7074 403.122 73.8283 401.751 78.0532 401.005ZM57.3902 402.403C57.0907 401.993 56.726 401.593 56.3985 401.174C56.7167 401.621 57.0907 401.993 57.3902 402.403ZM62.8831 414.072C59.901 402.892 51.6326 393.412 39.9242 389.538C34.9932 404.439 40.2337 420.158 51.7666 429.164C53.3181 430.393 55.0092 431.481 56.812 432.419C58.8279 432.713 60.8062 432.839 62.8027 432.816C77.4315 432.467 91.014 422.977 95.945 408.075C84.2367 404.201 71.9455 406.878 62.8831 414.072Z" fill="white"/>
<path opacity="0.5" d="M25.7382 349.815C33.0038 337.513 36.0555 322.773 33.1997 307.721C18.0049 310.603 5.19648 318.697 -3.7433 329.736C-0.293067 336.29 2.15946 343.401 3.43187 350.883C10.8315 349.369 18.347 349.047 25.7382 349.815ZM-9.33904 342.309C-9.6427 341.484 -10.0596 340.644 -10.4055 339.79C-10.0884 340.686 -9.6427 341.484 -9.33904 342.309ZM-5.74464 364.357C-5.39022 344.318 -14.6489 324.596 -32.304 312.571C-47.6078 335.041 -46.3611 363.714 -31.4403 384.201C-29.441 386.985 -27.1424 389.602 -24.5867 392.022C-21.3694 393.472 -18.1349 394.623 -14.7989 395.535C9.72985 401.916 36.8665 392.575 52.1702 370.104C34.5151 358.08 12.7718 356.688 -5.74464 364.357Z" fill="white"/>
<path opacity="0.5" d="M6.5364 250.148C6.97445 235.578 2.44691 220.903 -7.51456 208.856C-19.6753 218.912 -27.1383 232.45 -29.6947 246.715C-23.3851 250.874 -17.6929 256.023 -12.8728 262.083C-7.00498 257.088 -0.447098 253.1 6.5364 250.148ZM-28.5066 260.707C-29.1841 260.119 -29.9704 259.573 -30.6998 258.98C-29.9753 259.625 -29.1841 260.119 -28.5066 260.707ZM-14.4419 278.642C-23.9885 260.559 -41.971 247.49 -63.6681 245.433C-66.285 273.048 -51.0577 298.059 -27.6386 309.024C-24.4816 310.528 -21.1394 311.735 -17.6638 312.641C-14.0751 312.352 -10.6175 311.79 -7.18728 310.962C17.8747 304.591 37.529 282.886 40.1458 255.271C18.4487 253.215 -1.66853 262.674 -14.4419 278.642Z" fill="white"/>
<path opacity="0.5" d="M121.593 212.763C124.129 205.026 124.022 196.448 120.587 188.42C112.483 191.887 106.347 197.962 102.724 205.201C105.447 208.426 107.684 212.083 109.309 216.092C113.242 214.342 117.385 213.242 121.593 212.763ZM101.15 212.885C100.88 212.463 100.545 212.046 100.248 211.613C100.534 212.073 100.88 212.463 101.15 212.885ZM105.853 224.716C103.594 213.519 96.0239 203.677 84.7237 199.148C78.9599 213.53 83.1679 229.336 93.9835 238.91C95.4374 240.214 97.0375 241.389 98.7566 242.423C100.725 242.835 102.666 243.08 104.635 243.179C119.069 243.723 133.028 235.198 138.792 220.816C127.491 216.288 115.219 218.178 105.853 224.716Z" fill="white"/>
<path opacity="0.5" d="M131.126 298.993C144.309 285.119 152.724 266.797 153.522 246.289C132.82 245.484 113.667 252.198 98.6787 263.919C101.212 273.512 102.275 283.532 101.686 293.682C111.801 293.93 121.708 295.769 131.126 298.993ZM87.5938 278.65C87.4455 277.481 87.154 276.259 86.9592 275.04C87.1037 276.305 87.4455 277.481 87.5938 278.65ZM85.6568 308.511C92.1443 282.46 85.9883 253.931 66.5572 232.926C39.8243 257.657 32.831 295.459 46.1481 326.689C47.921 330.924 50.1348 335.031 52.7431 338.959C56.5071 341.818 60.3829 344.294 64.4635 346.488C94.5641 362.191 132.796 358.156 159.529 333.426C140.098 312.422 112.133 304.067 85.6568 308.511Z" fill="white"/>
<path opacity="0.5" d="M369.649 528.756C373.239 521.813 374.454 513.669 372.432 505.535C364.221 507.576 357.473 512.39 352.929 518.694C355.015 522.168 356.573 525.977 357.498 530.025C361.493 528.97 365.588 528.563 369.649 528.756ZM350.259 525.733C350.068 525.292 349.814 524.846 349.599 524.39C349.8 524.87 350.068 525.292 350.259 525.733ZM352.899 537.666C352.477 526.71 346.815 516.221 336.802 510.195C329.133 522.938 330.694 538.561 339.473 549.294C340.65 550.753 341.986 552.111 343.456 553.355C345.258 554.048 347.06 554.578 348.91 554.973C362.504 557.705 377.04 551.77 384.709 539.027C374.696 533.001 362.777 532.908 352.899 537.666Z" fill="white"/>
<path opacity="0.5" d="M252.468 511.16C258.78 500.473 261.431 487.669 258.95 474.592C245.75 477.096 234.622 484.128 226.856 493.717C229.853 499.411 231.984 505.589 233.089 512.089C239.518 510.774 246.047 510.494 252.468 511.16ZM221.995 504.64C221.731 503.923 221.369 503.193 221.068 502.452C221.344 503.23 221.731 503.923 221.995 504.64ZM225.117 523.794C225.425 506.386 217.382 489.252 202.044 478.806C188.749 498.327 189.832 523.235 202.795 541.034C204.531 543.452 206.528 545.725 208.749 547.828C211.544 549.087 214.353 550.088 217.252 550.88C238.561 556.423 262.135 548.308 275.43 528.787C260.093 518.341 241.203 517.132 225.117 523.794Z" fill="white"/>
<path opacity="0.5" d="M306.549 500.441C314.313 499.538 321.745 495.993 327.36 489.769C321.078 484.102 313.314 481.198 305.547 480.953C303.832 484.625 301.545 488.045 298.705 491.075C301.813 493.798 304.439 496.967 306.549 500.441ZM298.217 482.674C298.476 482.269 298.705 481.809 298.962 481.376C298.677 481.81 298.476 482.269 298.217 482.674ZM289.799 491.533C298.648 485.059 304.18 474.501 303.58 462.831C288.726 463.594 276.645 473.621 272.652 486.9C272.101 488.692 271.721 490.559 271.511 492.473C271.944 494.354 272.512 496.145 273.218 497.9C278.551 510.699 291.597 519.434 306.451 518.67C305.851 507 299.265 497.065 289.799 491.533Z" fill="white"/>
<path opacity="0.5" d="M309.836 569.029C315.244 565.472 319.422 560.083 321.259 553.39C314.503 551.535 307.679 552.276 301.843 554.985C301.94 558.339 301.521 561.721 300.548 565.019C303.86 565.877 306.982 567.244 309.836 569.029ZM297.061 558.986C297.102 558.59 297.099 558.165 297.129 557.748C297.079 558.176 297.102 558.59 297.061 558.986ZM294.13 568.672C298.267 560.59 298.43 550.721 293.643 542.311C282.939 548.404 277.734 560.317 279.722 571.626C279.98 573.157 280.394 574.679 280.952 576.173C281.972 577.404 283.058 578.517 284.234 579.553C292.942 587.036 305.844 588.643 316.547 582.55C311.76 574.14 303.191 569.242 294.13 568.672Z" fill="white"/>
<path opacity="0.5" d="M280.427 422.746C281.501 412.754 279.168 402.427 272.961 393.617C264.068 399.883 258.219 408.793 255.705 418.463C259.821 421.657 263.46 425.498 266.452 429.919C270.75 426.797 275.47 424.404 280.427 422.746ZM255.779 428.143C255.344 427.703 254.833 427.286 254.363 426.84C254.827 427.321 255.344 427.703 255.779 428.143ZM264.494 441.218C258.892 428.281 247.225 418.343 232.421 415.778C229.156 434.621 238.295 452.621 253.81 461.401C255.901 462.603 258.134 463.61 260.475 464.417C262.957 464.409 265.363 464.206 267.765 463.819C285.33 460.77 299.992 446.894 303.257 428.051C288.452 425.486 274.122 430.92 264.494 441.218Z" fill="white"/>
<path opacity="0.5" d="M242.333 383.753C252.163 381.062 261.045 375.03 267.058 365.905C257.846 359.835 247.268 357.618 237.209 358.83C235.721 363.9 233.445 368.759 230.381 373.222C234.922 376.122 238.93 379.689 242.333 383.753ZM228.1 362.49C228.354 361.916 228.558 361.279 228.805 360.67C228.522 361.286 228.354 361.916 228.1 362.49ZM218.991 375.564C229.124 365.48 234.178 350.783 231.109 335.858C212.114 339.763 198.513 355.064 195.979 372.964C195.62 375.382 195.498 377.863 195.604 380.372C196.532 382.712 197.616 384.908 198.871 387.032C208.262 402.48 226.796 411.174 245.791 407.268C242.723 392.343 232.28 380.833 218.991 375.564Z" fill="white"/>
<path opacity="0.5" d="M388.789 355.462C391.192 348.131 391.089 340.003 387.835 332.396C380.156 335.681 374.341 341.437 370.909 348.297C373.489 351.353 375.609 354.818 377.149 358.616C380.875 356.959 384.801 355.916 388.789 355.462ZM369.418 355.578C369.162 355.178 368.844 354.783 368.563 354.373C368.834 354.809 369.162 355.178 369.418 355.578ZM373.874 366.788C371.734 356.179 364.56 346.852 353.853 342.561C348.391 356.189 352.378 371.166 362.627 380.238C364.004 381.474 365.521 382.587 367.15 383.567C369.015 383.957 370.854 384.189 372.719 384.282C386.397 384.799 399.623 376.721 405.085 363.093C394.377 358.802 382.748 360.593 373.874 366.788Z" fill="white"/>
<path opacity="0.5" d="M397.821 437.17C410.313 424.023 418.286 406.662 419.043 387.23C399.427 386.466 381.278 392.829 367.076 403.935C369.476 413.025 370.484 422.52 369.926 432.137C379.51 432.372 388.898 434.115 397.821 437.17ZM356.572 417.893C356.432 416.786 356.155 415.628 355.971 414.473C356.108 415.672 356.432 416.786 356.572 417.893ZM354.737 446.188C360.884 421.503 355.051 394.471 336.639 374.568C311.308 398.001 304.682 433.821 317.3 463.413C318.98 467.426 321.078 471.317 323.549 475.039C327.116 477.749 330.789 480.095 334.655 482.173C363.177 497.053 399.404 493.23 424.734 469.797C406.322 449.894 379.825 441.978 354.737 446.188Z" fill="white"/>
<g opacity="0.8">
<path opacity="0.5" d="M157.867 344.264C219.118 319.83 271.854 274.604 303.897 211.563C240.261 179.218 170.637 172.642 106.837 187.735C100.946 221.411 89.8385 254.307 73.3736 285.227C104.675 300.576 133.036 320.604 157.867 344.264V344.264ZM50.9193 217.873C52.1383 214.003 52.9868 209.757 54.1327 205.662C52.7626 209.83 52.1383 214.003 50.9193 217.873ZM103.462 360.016C100.493 357.759 97.8997 355.131 94.7067 352.947C97.8997 355.131 100.493 357.759 103.462 360.016ZM1.83673 308.549C59.6734 236.355 81.5054 138.189 50.9458 44.4511C-68.3572 83.3452 -144.707 191.594 -148.015 308.529C-148.567 324.339 -147.554 340.382 -145.049 356.436C-137.387 370.808 -128.823 384.141 -119.21 396.885C-47.6176 489.402 77.8612 531.852 197.164 492.958C166.605 399.22 91.1104 332.784 1.83673 308.549Z" fill="white"/>
</g>
<path opacity="0.5" d="M61.4723 -18.1755C74.7077 -21.3501 86.8204 -29.0241 95.2347 -40.9505C83.1958 -49.4441 69.1697 -52.8519 55.6906 -51.6608C53.4887 -44.957 50.2444 -38.5672 45.9645 -32.7397C51.9028 -28.6765 57.1019 -23.7445 61.4723 -18.1755ZM43.3753 -47.163C43.739 -47.9175 44.0383 -48.7596 44.3937 -49.5621C43.9903 -48.7513 43.739 -47.9175 43.3753 -47.163ZM30.661 -30.0973C44.6153 -43.1285 51.9856 -62.5321 48.5231 -82.5849C23.0014 -78.1782 4.19661 -58.3317 0.0533741 -34.5449C-0.528164 -31.3321 -0.797015 -28.025 -0.761457 -24.6718C0.377485 -21.509 1.73145 -18.5315 3.31699 -15.6435C15.1968 5.37672 39.5679 17.7683 65.0897 13.3615C61.6273 -6.69126 48.1771 -22.5 30.661 -30.0973Z" fill="white"/>
<path opacity="0.5" d="M16.7381 30.795C22.3405 16.8948 23.1896 1.12908 17.8628 -14.0338C2.55686 -8.65663 -9.45533 1.75036 -16.9926 14.6028C-12.3845 20.8582 -8.72364 27.8482 -6.22837 35.4083C1.20808 32.6753 8.95183 31.1601 16.7381 30.795ZM-20.8205 28.5224C-21.2651 27.7143 -21.8295 26.9082 -22.3224 26.077C-21.8527 26.9566 -21.2651 27.7143 -20.8205 28.5224ZM-13.6285 50.8239C-16.4094 29.9858 -29.1107 10.9857 -49.3104 1.28888C-61.6518 26.9977 -55.8538 56.5384 -37.1601 75.4421C-34.6492 78.0151 -31.8542 80.3677 -28.8232 82.4767C-25.2588 83.4743 -21.7233 84.1606 -18.1202 84.5821C8.3216 87.3454 34.9979 73.3937 47.3392 47.6849C27.1394 37.9882 4.37025 39.961 -13.6285 50.8239Z" fill="white"/>
<path opacity="0.5" d="M-27.9594 145.276C-11.3861 140.042 3.35267 129.178 12.9982 113.231C-3.09992 103.494 -21.2722 100.414 -38.3342 103.143C-40.5362 111.88 -44.0941 120.311 -49.0219 128.118C-41.0926 132.76 -34.0269 138.575 -27.9594 145.276ZM-53.6165 109.979C-53.221 108.986 -52.9155 107.886 -52.5349 106.832C-52.9759 107.901 -53.221 108.986 -53.6165 109.979ZM-68.2772 132.86C-51.6743 115.007 -44.0307 89.6289 -50.2437 64.3978C-82.356 72.3052 -104.525 99.2752 -107.664 129.946C-108.116 134.091 -108.161 138.327 -107.814 142.596C-106.079 146.522 -104.087 150.193 -101.807 153.729C-84.7858 179.435 -52.629 193.028 -20.5166 185.121C-26.7296 159.89 -45.283 140.962 -68.2772 132.86Z" fill="white"/>
<path opacity="0.5" d="M129.807 50.7805C146.537 44.8346 161.188 33.2075 170.455 16.5754C153.666 7.22102 135.002 4.73804 117.683 8.14478C115.753 17.1446 112.427 25.8809 107.68 34.0311C115.944 38.4813 123.369 44.1605 129.807 50.7805ZM102.33 15.6799C102.697 14.6511 102.969 13.5174 103.319 12.4275C102.908 13.5348 102.697 14.6511 102.33 15.6799ZM88.1949 39.5723C104.495 20.742 111.375 -5.44478 104.114 -30.9774C71.6184 -21.7362 49.9677 6.6043 47.8789 38.0308C47.5684 42.2785 47.6764 46.6053 48.1857 50.95C50.0999 54.8952 52.2674 58.5702 54.7229 62.0974C73.0358 87.7221 106.359 100.429 138.855 91.1881C131.595 65.6555 111.965 47.0075 88.1949 39.5723Z" fill="white"/>
<path opacity="0.5" d="M319.979 302.675C331.425 287.832 337.779 269.135 336.492 249.076C316.244 250.375 298.26 258.844 284.838 271.771C288.272 280.862 290.316 290.517 290.764 300.464C300.643 299.688 310.48 300.482 319.979 302.675ZM275.522 287.238C275.26 286.115 274.853 284.953 274.54 283.786C274.808 285.003 275.26 286.115 275.522 287.238ZM276.64 316.524C280.338 290.492 271.47 263.318 250.425 244.811C226.871 271.595 223.863 309.126 239.98 338.21C242.134 342.157 244.704 345.935 247.64 349.5C251.595 351.906 255.62 353.928 259.816 355.654C290.721 367.923 327.561 360.144 351.115 333.361C330.071 314.854 301.987 309.53 276.64 316.524Z" fill="white"/>
<path opacity="0.5" d="M56.2644 196.073C72.9938 190.127 87.6455 178.5 96.9124 161.868C80.1234 152.513 61.4592 150.03 44.1398 153.437C42.2096 162.437 38.884 171.173 34.1374 179.323C42.4013 183.774 49.8263 189.453 56.2644 196.073ZM28.7867 160.972C29.1543 159.943 29.4261 158.81 29.7764 157.72C29.365 158.827 29.1543 159.943 28.7867 160.972ZM14.652 184.865C30.9524 166.034 37.8324 139.847 30.5715 114.315C-1.92448 123.556 -23.5752 151.897 -25.664 183.323C-25.9745 187.571 -25.8665 191.898 -25.3572 196.242C-23.443 200.187 -21.2755 203.862 -18.82 207.39C-0.507126 233.014 32.8166 245.721 65.3126 236.48C58.0517 210.948 38.4218 192.3 14.652 184.865Z" fill="white"/>
<path opacity="0.5" d="M219.458 255.34C224.811 249.064 228.008 240.983 227.877 232.138C218.949 232.271 210.861 235.604 204.682 240.996C205.994 245.066 206.684 249.354 206.665 253.736C211.024 253.608 215.331 254.17 219.458 255.34ZM200.252 247.592C200.161 247.093 200.007 246.574 199.895 246.054C199.987 246.595 200.161 247.093 200.252 247.592ZM200.11 260.489C202.299 249.127 198.989 236.991 190.14 228.401C179.207 239.663 177.072 256.095 183.527 269.227C184.388 271.009 185.436 272.725 186.649 274.355C188.335 275.499 190.061 276.475 191.868 277.324C205.186 283.386 221.547 280.764 232.48 269.502C223.631 260.912 211.402 257.964 200.11 260.489Z" fill="white"/>
<path opacity="0.5" d="M118.601 123.484C123.413 117.724 126.248 110.342 126.047 102.295C117.925 102.498 110.596 105.606 105.023 110.568C106.255 114.259 106.922 118.155 106.945 122.142C110.91 121.986 114.834 122.458 118.601 123.484ZM101.053 116.611C100.966 116.158 100.821 115.686 100.715 115.214C100.803 115.706 100.966 116.158 101.053 116.611ZM101.043 128.347C102.93 117.988 99.8064 106.977 91.6756 99.242C81.8316 109.59 80.0406 124.561 86.0344 136.451C86.8343 138.064 87.8035 139.616 88.9227 141.088C90.4675 142.113 92.0464 142.985 93.6984 143.741C105.872 149.134 120.735 146.598 130.579 136.25C122.448 128.515 111.294 125.945 101.043 128.347Z" fill="white"/>
<path opacity="0.5" d="M194.685 186.466C206.586 178.561 215.757 166.626 219.747 151.833C204.815 147.805 189.759 149.507 176.903 155.545C177.151 162.948 176.259 170.417 174.143 177.706C181.463 179.568 188.368 182.554 194.685 186.466ZM166.386 164.423C166.472 163.548 166.464 162.61 166.524 161.691C166.419 162.635 166.472 163.548 166.386 164.423ZM160.012 185.833C169.064 167.952 169.327 146.166 158.678 127.649C135.111 141.202 123.736 167.551 128.236 192.494C128.822 195.871 129.75 199.228 130.996 202.52C133.259 205.227 135.669 207.673 138.274 209.948C157.569 226.381 186.064 229.801 209.631 216.248C198.982 197.731 180.019 187.001 160.012 185.833Z" fill="white"/>
<path opacity="0.5" d="M220.842 88.3956C227.587 75.4727 229.908 60.292 226.193 45.1077C210.866 48.8576 198.248 57.7896 189.73 69.5143C193.596 76.0078 196.475 83.1222 198.172 90.6778C205.63 88.7392 213.27 88.0087 220.842 88.3956ZM184.701 82.6247C184.348 81.8002 183.878 80.9663 183.48 80.1148C183.851 81.0108 184.348 81.8002 184.701 82.6247ZM189.543 104.897C188.832 84.4607 178.344 64.8607 159.712 53.5535C145.321 77.2666 148.125 106.414 164.423 126.49C166.609 129.219 169.091 131.763 171.824 134.092C175.18 135.397 178.537 136.397 181.985 137.148C207.318 142.337 234.468 131.368 248.859 107.655C230.227 96.3477 207.999 96.0925 189.543 104.897Z" fill="white"/>
<path opacity="0.5" d="M340.69 104.896C346.345 99.037 349.986 91.27 350.394 82.5478C341.59 82.1359 333.419 84.9286 327.003 89.865C328.049 93.9547 328.468 98.2213 328.183 102.537C332.486 102.677 336.694 103.492 340.69 104.896ZM322.238 96.095C322.179 95.5975 322.059 95.0764 321.98 94.5573C322.037 95.0961 322.179 95.5975 322.238 96.095ZM321.314 108.793C324.161 97.7312 321.637 85.5732 313.441 76.5721C301.985 87.0041 298.883 103.064 304.445 116.394C305.185 118.202 306.113 119.957 307.209 121.637C308.801 122.866 310.442 123.932 312.171 124.879C324.924 131.66 341.203 130.071 352.659 119.639C344.462 110.638 332.593 106.991 321.314 108.793Z" fill="white"/>
<path opacity="0.5" d="M311.686 186.659C329.598 179.918 345.158 167.095 354.814 148.985C336.534 139.238 316.369 136.933 297.77 140.949C295.869 150.687 292.459 160.169 287.505 169.048C296.5 173.679 304.616 179.652 311.686 186.659ZM281.373 149.376C281.749 148.26 282.02 147.033 282.375 145.851C281.954 147.053 281.749 148.26 281.373 149.376ZM266.615 175.408C283.808 154.789 290.702 126.429 282.369 99.0553C247.53 109.662 224.759 140.637 223.134 174.548C222.883 179.133 223.086 183.794 223.721 188.466C225.863 192.68 228.272 196.598 230.989 200.35C251.236 227.603 287.403 240.635 322.242 230.029C313.909 202.655 292.381 182.948 266.615 175.408Z" fill="white"/>
</g>
<defs>
<clipPath id="clip0_2_82">
<rect width="360" height="640" fill="white"/>
</clipPath>
</defs>
</svg>
