<svg width="360" height="640" viewBox="0 0 360 640" fill="none" xmlns="http://www.w3.org/2000/svg">
<g clip-path="url(#clip0_2_172)">
<rect width="360" height="640" fill="white"/>
<path opacity="0.5" d="M-46.6931 126.62C-16.5433 112.17 12.8111 99.9288 21.1132 107.552C34.6137 119.543 9.40956 140.051 -5.622 152.104C-18.2809 162.516 -140.045 242.352 -167.543 318.71C-182.087 359.097 -178.989 397.995 -159.132 427.959C-141.836 454.149 -112.537 470.76 -81.0774 472.465C-43.8007 474.839 -3.65473 450.444 46.9283 419.827C102.03 386.56 175.292 343.437 214.724 357.637C266.144 376.155 255.299 408.25 249.906 434.11C123.39 411.362 38.4868 488.789 19.1701 542.428C-0.146624 596.068 29.4854 656.285 85.3219 676.393C136.742 694.91 235.767 683.164 302.586 537.203L380.189 565.149L408.596 486.268L330.677 458.208C344.694 404.442 344.016 313.304 251.27 279.905C180.292 254.344 97.7049 292.683 63.1625 313.393C36.571 329.838 -30.002 368.241 -39.9846 373.201C-51.28 379.826 -70.9807 391.98 -84.5455 387.095C-98.7412 381.983 -97.8275 352.727 -74.0855 322.424C-50.659 292.008 2.57645 248.089 24.2716 232.376C61.831 205.267 87.0979 186.564 102.551 143.652C127.208 75.1835 83.3133 34.7811 55.8682 24.8975C14.2275 9.90178 -33.4132 28.3898 -44.1404 33.4378C-59.5876 40.707 -72.4603 46.7646 -82.4683 52.7845L-46.6931 126.62ZM113.88 600.061C104.101 596.539 93.4901 583.45 98.7169 568.936C105.535 550.005 146.744 507.814 220.615 514.456C180.586 595.924 135.962 608.013 113.88 600.061Z" fill="#D3DBC1"/>
</g>
<defs>
<clipPath id="clip0_2_172">
<rect width="360" height="640" fill="white"/>
</clipPath>
</defs>
</svg>
